<svg xmlns="http://www.w3.org/2000/svg" viewBox="0 0 123.91 112.44">
    <defs>
        <style>.cls-1{fill:#64248b;}</style>
    </defs>
    <title>Icono</title>
    <g id="Layer_2" data-name="Layer 2">
        <g id="Layer_1-2" data-name="Layer 1">
            <path class="cls-1" d="M80.71,55.34A22.18,22.18,0,1,0,49.37,25.58a28.08,28.08,0,0,1,5.23,2.77,16.38,16.38,0,0,1,4-4.41,16.25,16.25,0,1,1,9.89,29.18c-.52,0-1,0-1.55-.08a28,28,0,0,1-1,6.18c.85-.07,1.68-.18,2.55-.18a29.78,29.78,0,0,1,29.6,29.6H104A35.55,35.55,0,0,0,80.71,55.34Z" />
            <path class="cls-1" d="M60.11,66a22.2,22.2,0,1,0-24.49,0,35.55,35.55,0,0,0-23.28,33.3h5.92a29.6,29.6,0,0,1,59.2,0h5.92A35.55,35.55,0,0,0,60.11,66ZM47.86,63.77A16.28,16.28,0,1,1,64.14,47.49,16.3,16.3,0,0,1,47.86,63.77Z" />
            <path class="cls-1" d="M100.83,89.13l-4.78-3.67a1.53,1.53,0,0,1,.43-2.65L121.88,74a1.53,1.53,0,0,1,2,1.55L122,102.4a1.53,1.53,0,0,1-2.45,1.1l-4.78-3.67s-8.6,8.73-20.62,11.6a38.49,38.49,0,0,1-29.8-5.32.5.5,0,0,1,.39-.91c3.91,1,11.09,2.17,18.26-.18C94.8,101.13,100.83,89.13,100.83,89.13Z" />
            <path class="cls-1" d="M22.56,23.89l4.91,3.49a1.53,1.53,0,0,1-.33,2.67L2.08,39.75A1.53,1.53,0,0,1,0,38.27L.92,11.42a1.53,1.53,0,0,1,2.41-1.19l4.91,3.49s8.27-9,20.17-12.36a38.49,38.49,0,0,1,30,4.21A.5.5,0,0,1,58,6.5c-3.94-.86-11.17-1.76-18.24.86C28.13,11.68,22.56,23.89,22.56,23.89Z" />
        </g>
    </g>
</svg>